<?xml version="1.0" encoding="UTF-8"?><svg id="b" xmlns="http://www.w3.org/2000/svg" xmlns:xlink="http://www.w3.org/1999/xlink" viewBox="0 0 1490.2 1205.1"><defs><style>.f{stroke:#bc955c;}.f,.g,.h{fill:none;}.f,.h{stroke-miterlimit:10;stroke-width:.2px;}.i{fill:url(#d);opacity:.1;}.j{clip-path:url(#e);}.h{stroke:#e0d0a6;}</style><clipPath id="e"><rect class="g" width="59" height="33"/></clipPath><pattern id="d" x="0" y="0" width="59" height="33" patternTransform="translate(377.7 22525) rotate(0) scale(7.9 -7.9)" patternUnits="userSpaceOnUse" viewBox="0 0 59 33"><g><rect class="g" width="59" height="33"/><g class="j"><polygon class="h" points="31.5 -15.6 31.5 -43.8 5.1 -17.4 5.1 10.8 31.5 -15.6"/><polygon class="f" points="34.5 -15.6 34.5 -43.8 60.9 -17.4 60.9 10.8 34.5 -15.6"/><polygon class="f" points="-24.5 -15.6 -24.5 -43.8 1.9 -17.4 1.9 10.8 -24.5 -15.6"/><polygon class="h" points="31.5 17.4 31.5 -10.8 5.1 15.6 5.1 43.8 31.5 17.4"/><polygon class="f" points="34.5 17.4 34.5 -10.8 60.9 15.6 60.9 43.8 34.5 17.4"/><polygon class="f" points="-24.5 17.4 -24.5 -10.8 1.9 15.6 1.9 43.8 -24.5 17.4"/><polygon class="h" points="31.5 50.4 31.5 22.2 5.1 48.6 5.1 76.8 31.5 50.4"/><polygon class="f" points="34.5 50.4 34.5 22.2 60.9 48.6 60.9 76.8 34.5 50.4"/><polygon class="f" points="-24.5 50.4 -24.5 22.2 1.9 48.6 1.9 76.8 -24.5 50.4"/></g></g></pattern></defs><g id="c"><path class="i" d="m1489.3,1205.1L0,1204,.9,0l1489.3,1.2-.9,1204Z"/></g></svg>